<?xml version="1.0" encoding="UTF-8"?>
<svg xmlns="http://www.w3.org/2000/svg"
     xmlns:rdf="http://www.w3.org/1999/02/22-rdf-syntax-ns#"
     xmlns:svg="http://www.w3.org/2000/svg"
     id="barrowsvg0.1"
     version="1.1"
     width="700"
     height="256">
   <defs id="defines_barrowsvg0.1"/>
   <svg:path style="fill:#fafaff;"
             d="M 0.0,0.0 L 700.0,0.0 700.0,256.0 0.0,256.0 Z"
             id="bg"/>
   <svg:path style="fill:#eaeafc;"
             d="M 50,12 L 685,12 685,246 50,246 Z"
             id="bg2"/>
   <svg:path style="fill:#0d0d0d;stroke:#0d0d0d;"
             d="M 50,64.0 L 50,12"
             id="coordypos"/>
   <svg:path style="fill:#0d0d0d;stroke:#0d0d0d;"
             d="M 50,7 L 55,14 50,12 45,14 Z"
             id="arrowypos"/>
   <svg:path style="fill:#0d0d0d;stroke:#0d0d0d;"
             d="M 50,64.0 L 50,246"
             id="coordyneg"/>
   <svg:path style="fill:#0d0d0d;stroke:#0d0d0d;"
             d="M 50,241 L 55,248 50,246 45,248 Z"
             transform="rotate(180 50 246)"
             id="arrowyneg"/>
   <svg:path style="fill:#0d0d0d;stroke:#0d0d0d;"
             d="M 50,64.0 L 685,64.0"
             id="coordxpos"/>
   <svg:path style="fill:#0d0d0d;stroke:#0d0d0d;"
             d="M 685,59 L 690,66 685,64.0 680,66 Z"
             transform="rotate(90 685,64.0)"
             id="arrowxpos"/>
   <svg:text style="font-size:8pt;font-face: monospace, Courier;font-color:#000000;"
             x="77"
             y="256">3.09.</svg:text>
   <svg:path style="stroke-width: 0.5; stroke:#7c7c7c; stroke-dasharray:3.2;"
             d="M 90,246 L 90,12"/>
   <svg:text style="font-size:8pt;font-face: monospace, Courier;font-color:#000000;"
             x="117"
             y="256">5.09.</svg:text>
   <svg:path style="stroke-width: 0.5; stroke:#7c7c7c; stroke-dasharray:3.2;"
             d="M 130,246 L 130,12"/>
   <svg:text style="font-size:8pt;font-face: monospace, Courier;font-color:#000000;"
             x="157"
             y="256">7.09.</svg:text>
   <svg:path style="stroke-width: 0.5; stroke:#7c7c7c; stroke-dasharray:3.2;"
             d="M 170,246 L 170,12"/>
   <svg:text style="font-size:8pt;font-face: monospace, Courier;font-color:#000000;"
             x="197"
             y="256">9.09.</svg:text>
   <svg:path style="stroke-width: 0.5; stroke:#7c7c7c; stroke-dasharray:3.2;"
             d="M 210,246 L 210,12"/>
   <svg:text style="font-size:8pt;font-face: monospace, Courier;font-color:#000000;"
             x="237"
             y="256">11.09.</svg:text>
   <svg:path style="stroke-width: 0.5; stroke:#7c7c7c; stroke-dasharray:3.2;"
             d="M 250,246 L 250,12"/>
   <svg:text style="font-size:8pt;font-face: monospace, Courier;font-color:#000000;"
             x="277"
             y="256">13.09.</svg:text>
   <svg:path style="stroke-width: 0.5; stroke:#7c7c7c; stroke-dasharray:3.2;"
             d="M 290,246 L 290,12"/>
   <svg:text style="font-size:8pt;font-face: monospace, Courier;font-color:#000000;"
             x="317"
             y="256">15.09.</svg:text>
   <svg:path style="stroke-width: 0.5; stroke:#7c7c7c; stroke-dasharray:3.2;"
             d="M 330,246 L 330,12"/>
   <svg:text style="font-size:8pt;font-face: monospace, Courier;font-color:#000000;"
             x="357"
             y="256">17.09.</svg:text>
   <svg:path style="stroke-width: 0.5; stroke:#7c7c7c; stroke-dasharray:3.2;"
             d="M 370,246 L 370,12"/>
   <svg:text style="font-size:8pt;font-face: monospace, Courier;font-color:#000000;"
             x="397"
             y="256">19.09.</svg:text>
   <svg:path style="stroke-width: 0.5; stroke:#7c7c7c; stroke-dasharray:3.2;"
             d="M 410,246 L 410,12"/>
   <svg:text style="font-size:8pt;font-face: monospace, Courier;font-color:#000000;"
             x="437"
             y="256">21.09.</svg:text>
   <svg:path style="stroke-width: 0.5; stroke:#7c7c7c; stroke-dasharray:3.2;"
             d="M 450,246 L 450,12"/>
   <svg:text style="font-size:8pt;font-face: monospace, Courier;font-color:#000000;"
             x="477"
             y="256">23.09.</svg:text>
   <svg:path style="stroke-width: 0.5; stroke:#7c7c7c; stroke-dasharray:3.2;"
             d="M 490,246 L 490,12"/>
   <svg:text style="font-size:8pt;font-face: monospace, Courier;font-color:#000000;"
             x="517"
             y="256">25.09.</svg:text>
   <svg:path style="stroke-width: 0.5; stroke:#7c7c7c; stroke-dasharray:3.2;"
             d="M 530,246 L 530,12"/>
   <svg:text style="font-size:8pt;font-face: monospace, Courier;font-color:#000000;"
             x="557"
             y="256">27.09.</svg:text>
   <svg:path style="stroke-width: 0.5; stroke:#7c7c7c; stroke-dasharray:3.2;"
             d="M 570,246 L 570,12"/>
   <svg:text style="font-size:8pt;font-face: monospace, Courier;font-color:#000000;"
             x="597"
             y="256">29.09.</svg:text>
   <svg:path style="stroke-width: 0.5; stroke:#7c7c7c; stroke-dasharray:3.2;"
             d="M 610,246 L 610,12"/>
   <svg:text style="font-size:8pt;font-face: monospace, Courier;font-color:#000000;"
             x="637"
             y="256">31.09.</svg:text>
   <svg:path style="stroke-width: 0.5; stroke:#7c7c7c; stroke-dasharray:3.2;"
             d="M 650,246 L 650,12"/>
   <svg:text style="font-size:8pt;font-face: monospace, Courier;font-color:#000000;"
             x="5"
             y="64.0">  0°C</svg:text>
   <svg:path style="stroke-width: 0.5; stroke:#7c7c7c; stroke-dasharray:3.2;"
             d="M 45,64.0 L 685,64.0"/>
   <svg:text style="font-size:8pt;font-face: monospace, Courier;font-color:#000000;"
             x="5"
             y="104">-10°C</svg:text>
   <svg:path style="stroke-width: 0.5; stroke:#7c7c7c; stroke-dasharray:3.2;"
             d="M 45,104 L 685,104"/>
   <svg:text style="font-size:8pt;font-face: monospace, Courier;font-color:#000000;"
             x="5"
             y="144">-20°C</svg:text>
   <svg:path style="stroke-width: 0.5; stroke:#7c7c7c; stroke-dasharray:3.2;"
             d="M 45,144 L 685,144"/>
   <svg:text style="font-size:8pt;font-face: monospace, Courier;font-color:#000000;"
             x="5"
             y="184">-30°C</svg:text>
   <svg:path style="stroke-width: 0.5; stroke:#7c7c7c; stroke-dasharray:3.2;"
             d="M 45,184 L 685,184"/>
   <svg:text style="font-size:8pt;font-face: monospace, Courier;font-color:#000000;"
             x="5"
             y="224">-40°C</svg:text>
   <svg:path style="stroke-width: 0.5; stroke:#7c7c7c; stroke-dasharray:3.2;"
             d="M 45,224 L 685,224"/>
   <svg:text style="font-size:8pt;font-face: monospace, Courier;font-color:#000000;"
             x="5"
             y="24">+10°C</svg:text>
   <svg:path style="stroke-width: 0.5; stroke:#7c7c7c; stroke-dasharray:3.2;"
             d="M 45,24 L 685,24"/>
   <svg:path style="stroke:#0afc0a;fill:none;"
             d="M 50,32.83333333333334  L 50,29 L 60,43.1 L 70,36.39999999999999 L 80,41.133333333333326 L 90,31.43333333333333 L 100,41.46666666666667 L 110,35.266666666666666 L 120,44.099999999999994 L 130,41.06666666666666 L 140,52.5 L 150,36.099999999999994 L 160,52.43333333333333 L 170,41.83333333333333 L 180,55.4 L 190,42.56666666666666 L 200,60.333333333333336 L 210,49.06666666666666 L 220,62.766666666666666 L 230,50.733333333333334 L 240,52.166666666666664 L 250,36.5 L 260,34.96666666666667 L 270,32.33333333333333 L 280,56.2 L 290,37.8 L 300,51.7 L 310,38.46666666666667 L 320,50.2 L 330,40.400000000000006 L 340,47.16666666666667 L 350,47.66666666666667 L 360,53.03333333333333 L 370,50 L 380,57.13333333333333 L 390,53.8 L 400,58.6 L 410,57.06666666666667 L 420,59.833333333333336 L 430,57.93333333333334 L 440,63.86666666666667 L 450,59.166666666666664 L 460,58.6 L 470,54.46666666666667 L 480,58.8 L 490,57.5 L 500,61.53333333333333 L 510,60.266666666666666 L 520,65.36666666666666 L 530,63.666666666666664 L 540,66.16666666666667 L 550,64.23333333333333 L 560,66.33333333333333 L 570,66.53333333333333 L 580,69.7 L 590,67.3 L 600,73.83333333333333 L 610,69.63333333333333 L 620,69.66666666666667 L 630,70.73333333333333 L 640,74.7"
             id="curveTempCurrent"/>
</svg>
