<?xml version="1.0" encoding="UTF-8"?>
<svg xmlns="http://www.w3.org/2000/svg"
     xmlns:rdf="http://www.w3.org/1999/02/22-rdf-syntax-ns#"
     xmlns:svg="http://www.w3.org/2000/svg"
     id="barrowsvg0.1"
     version="1.1"
     width="700"
     height="256">
   <defs id="defines_barrowsvg0.1"/>
   <svg:path style="fill:#fafaff;"
             d="M 0.0,0.0 L 700.0,0.0 700.0,256.0 0.0,256.0 Z"
             id="bg"/>
   <svg:path style="fill:#eaeafc;"
             d="M 50,12 L 685,12 685,246 50,246 Z"
             id="bg2"/>
   <svg:path style="fill:#0d0d0d;stroke:#0d0d0d;"
             d="M 50,64.0 L 50,12"
             id="coordypos"/>
   <svg:path style="fill:#0d0d0d;stroke:#0d0d0d;"
             d="M 50,7 L 55,14 50,12 45,14 Z"
             id="arrowypos"/>
   <svg:path style="fill:#0d0d0d;stroke:#0d0d0d;"
             d="M 50,64.0 L 50,246"
             id="coordyneg"/>
   <svg:path style="fill:#0d0d0d;stroke:#0d0d0d;"
             d="M 50,241 L 55,248 50,246 45,248 Z"
             transform="rotate(180 50 246)"
             id="arrowyneg"/>
   <svg:path style="fill:#0d0d0d;stroke:#0d0d0d;"
             d="M 50,64.0 L 685,64.0"
             id="coordxpos"/>
   <svg:path style="fill:#0d0d0d;stroke:#0d0d0d;"
             d="M 685,59 L 690,66 685,64.0 680,66 Z"
             transform="rotate(90 685,64.0)"
             id="arrowxpos"/>
   <svg:text style="font-size:8pt;font-face: monospace, Courier;font-color:#000000;"
             x="77"
             y="256">3.10.</svg:text>
   <svg:path style="stroke-width: 0.5; stroke:#7c7c7c; stroke-dasharray:3.2;"
             d="M 90,246 L 90,12"/>
   <svg:text style="font-size:8pt;font-face: monospace, Courier;font-color:#000000;"
             x="117"
             y="256">5.10.</svg:text>
   <svg:path style="stroke-width: 0.5; stroke:#7c7c7c; stroke-dasharray:3.2;"
             d="M 130,246 L 130,12"/>
   <svg:text style="font-size:8pt;font-face: monospace, Courier;font-color:#000000;"
             x="157"
             y="256">7.10.</svg:text>
   <svg:path style="stroke-width: 0.5; stroke:#7c7c7c; stroke-dasharray:3.2;"
             d="M 170,246 L 170,12"/>
   <svg:text style="font-size:8pt;font-face: monospace, Courier;font-color:#000000;"
             x="197"
             y="256">9.10.</svg:text>
   <svg:path style="stroke-width: 0.5; stroke:#7c7c7c; stroke-dasharray:3.2;"
             d="M 210,246 L 210,12"/>
   <svg:text style="font-size:8pt;font-face: monospace, Courier;font-color:#000000;"
             x="237"
             y="256">11.10.</svg:text>
   <svg:path style="stroke-width: 0.5; stroke:#7c7c7c; stroke-dasharray:3.2;"
             d="M 250,246 L 250,12"/>
   <svg:text style="font-size:8pt;font-face: monospace, Courier;font-color:#000000;"
             x="277"
             y="256">13.10.</svg:text>
   <svg:path style="stroke-width: 0.5; stroke:#7c7c7c; stroke-dasharray:3.2;"
             d="M 290,246 L 290,12"/>
   <svg:text style="font-size:8pt;font-face: monospace, Courier;font-color:#000000;"
             x="317"
             y="256">15.10.</svg:text>
   <svg:path style="stroke-width: 0.5; stroke:#7c7c7c; stroke-dasharray:3.2;"
             d="M 330,246 L 330,12"/>
   <svg:text style="font-size:8pt;font-face: monospace, Courier;font-color:#000000;"
             x="357"
             y="256">17.10.</svg:text>
   <svg:path style="stroke-width: 0.5; stroke:#7c7c7c; stroke-dasharray:3.2;"
             d="M 370,246 L 370,12"/>
   <svg:text style="font-size:8pt;font-face: monospace, Courier;font-color:#000000;"
             x="397"
             y="256">19.10.</svg:text>
   <svg:path style="stroke-width: 0.5; stroke:#7c7c7c; stroke-dasharray:3.2;"
             d="M 410,246 L 410,12"/>
   <svg:text style="font-size:8pt;font-face: monospace, Courier;font-color:#000000;"
             x="437"
             y="256">21.10.</svg:text>
   <svg:path style="stroke-width: 0.5; stroke:#7c7c7c; stroke-dasharray:3.2;"
             d="M 450,246 L 450,12"/>
   <svg:text style="font-size:8pt;font-face: monospace, Courier;font-color:#000000;"
             x="477"
             y="256">23.10.</svg:text>
   <svg:path style="stroke-width: 0.5; stroke:#7c7c7c; stroke-dasharray:3.2;"
             d="M 490,246 L 490,12"/>
   <svg:text style="font-size:8pt;font-face: monospace, Courier;font-color:#000000;"
             x="517"
             y="256">25.10.</svg:text>
   <svg:path style="stroke-width: 0.5; stroke:#7c7c7c; stroke-dasharray:3.2;"
             d="M 530,246 L 530,12"/>
   <svg:text style="font-size:8pt;font-face: monospace, Courier;font-color:#000000;"
             x="557"
             y="256">27.10.</svg:text>
   <svg:path style="stroke-width: 0.5; stroke:#7c7c7c; stroke-dasharray:3.2;"
             d="M 570,246 L 570,12"/>
   <svg:text style="font-size:8pt;font-face: monospace, Courier;font-color:#000000;"
             x="597"
             y="256">29.10.</svg:text>
   <svg:path style="stroke-width: 0.5; stroke:#7c7c7c; stroke-dasharray:3.2;"
             d="M 610,246 L 610,12"/>
   <svg:text style="font-size:8pt;font-face: monospace, Courier;font-color:#000000;"
             x="637"
             y="256">31.10.</svg:text>
   <svg:path style="stroke-width: 0.5; stroke:#7c7c7c; stroke-dasharray:3.2;"
             d="M 650,246 L 650,12"/>
   <svg:text style="font-size:8pt;font-face: monospace, Courier;font-color:#000000;"
             x="5"
             y="64.0">  0°C</svg:text>
   <svg:path style="stroke-width: 0.5; stroke:#7c7c7c; stroke-dasharray:3.2;"
             d="M 45,64.0 L 685,64.0"/>
   <svg:text style="font-size:8pt;font-face: monospace, Courier;font-color:#000000;"
             x="5"
             y="104">-10°C</svg:text>
   <svg:path style="stroke-width: 0.5; stroke:#7c7c7c; stroke-dasharray:3.2;"
             d="M 45,104 L 685,104"/>
   <svg:text style="font-size:8pt;font-face: monospace, Courier;font-color:#000000;"
             x="5"
             y="144">-20°C</svg:text>
   <svg:path style="stroke-width: 0.5; stroke:#7c7c7c; stroke-dasharray:3.2;"
             d="M 45,144 L 685,144"/>
   <svg:text style="font-size:8pt;font-face: monospace, Courier;font-color:#000000;"
             x="5"
             y="184">-30°C</svg:text>
   <svg:path style="stroke-width: 0.5; stroke:#7c7c7c; stroke-dasharray:3.2;"
             d="M 45,184 L 685,184"/>
   <svg:text style="font-size:8pt;font-face: monospace, Courier;font-color:#000000;"
             x="5"
             y="224">-40°C</svg:text>
   <svg:path style="stroke-width: 0.5; stroke:#7c7c7c; stroke-dasharray:3.2;"
             d="M 45,224 L 685,224"/>
   <svg:text style="font-size:8pt;font-face: monospace, Courier;font-color:#000000;"
             x="5"
             y="24">+10°C</svg:text>
   <svg:path style="stroke-width: 0.5; stroke:#7c7c7c; stroke-dasharray:3.2;"
             d="M 45,24 L 685,24"/>
   <svg:rect x="520"
             y="12"
             width="10.0"
             height="236"
             style="fill:#ff7777;fill-opacity:0.4;"/>
   <svg:path style="stroke:#0a0afc;fill:none;"
             d="M 50,71.91666666666667  L 50,71.43333333333334 L 60,78.6 L 70,75.56666666666666 L 80,84.33333333333334 L 90,84.13333333333333 L 100,77.63333333333333 L 110,65.56666666666666 L 120,67.2 L 130,69 L 140,69.9 L 150,82.43333333333334 L 160,98.03333333333333 L 170,69.7 L 180,71.1 L 190,74.33333333333333 L 200,70.33333333333333 L 210,72.2 L 220,73.96666666666667 L 230,84.8 L 240,88.83333333333333 L 250,76.33333333333333 L 260,82.76666666666667 L 270,79.5 L 280,76.93333333333334 L 290,81.93333333333334 L 300,77.26666666666667 L 310,73.2 L 320,71.96666666666667 L 330,71.6 L 340,74.26666666666667 L 350,71.26666666666667 L 360,72.16666666666667 L 370,69.93333333333334 L 380,69.3 L 390,68.93333333333334 L 400,67.6 L 410,68.26666666666667 L 420,74.23333333333333 L 430,71.63333333333334 L 440,72.2 L 450,72.56666666666666 L 460,73.6 L 470,74.96666666666667 L 480,80.53333333333333 L 490,84.96666666666667 L 500,92.06666666666666 L 510,91.33333333333333 L 520,99.23333333333333 L 540,96.26666666666665 L 550,96.69999999999999 L 560,96.83333333333334 L 570,95.60000000000001 L 580,93.5 L 590,93.8 L 600,97.86666666666667 L 610,98.26666666666667 L 620,104.1 L 630,106.2 L 640,101.83333333333333 L 650,86.03333333333333 L 660,86.9"
             id="curveTempCurrent"/>
</svg>
