<?xml version="1.0" encoding="UTF-8"?>
<svg xmlns="http://www.w3.org/2000/svg"
     xmlns:rdf="http://www.w3.org/1999/02/22-rdf-syntax-ns#"
     xmlns:svg="http://www.w3.org/2000/svg"
     id="barrowsvg0.1"
     version="1.1"
     width="700"
     height="256">
   <defs id="defines_barrowsvg0.1"/>
   <svg:path style="fill:#fafaff;"
             d="M 0.0,0.0 L 700.0,0.0 700.0,256.0 0.0,256.0 Z"
             id="bg"/>
   <svg:path style="fill:#eaeafc;"
             d="M 50,12 L 685,12 685,246 50,246 Z"
             id="bg2"/>
   <svg:path style="fill:#0d0d0d;stroke:#0d0d0d;"
             d="M 50,246.0 L 50,12"
             id="coordypos"/>
   <svg:path style="fill:#0d0d0d;stroke:#0d0d0d;"
             d="M 50,7 L 55,14 50,12 45,14 Z"
             id="arrowypos"/>
   <svg:path style="fill:#0d0d0d;stroke:#0d0d0d;"
             d="M 50,246.0 L 50,246"
             id="coordyneg"/>
   <svg:path style="fill:#0d0d0d;stroke:#0d0d0d;"
             d="M 50,241 L 55,248 50,246 45,248 Z"
             transform="rotate(180 50 246)"
             id="arrowyneg"/>
   <svg:path style="fill:#0d0d0d;stroke:#0d0d0d;"
             d="M 50,246.0 L 685,246.0"
             id="coordxpos"/>
   <svg:path style="fill:#0d0d0d;stroke:#0d0d0d;"
             d="M 685,241 L 690,248 685,246.0 680,248 Z"
             transform="rotate(90 685,246.0)"
             id="arrowxpos"/>
   <svg:text style="font-size:8pt;font-face: monospace, Courier;font-color:#000000;"
             x="77"
             y="256">3.12.</svg:text>
   <svg:path style="stroke-width: 0.5; stroke:#7c7c7c; stroke-dasharray:3.2;"
             d="M 90,246 L 90,12"/>
   <svg:text style="font-size:8pt;font-face: monospace, Courier;font-color:#000000;"
             x="117"
             y="256">5.12.</svg:text>
   <svg:path style="stroke-width: 0.5; stroke:#7c7c7c; stroke-dasharray:3.2;"
             d="M 130,246 L 130,12"/>
   <svg:text style="font-size:8pt;font-face: monospace, Courier;font-color:#000000;"
             x="157"
             y="256">7.12.</svg:text>
   <svg:path style="stroke-width: 0.5; stroke:#7c7c7c; stroke-dasharray:3.2;"
             d="M 170,246 L 170,12"/>
   <svg:text style="font-size:8pt;font-face: monospace, Courier;font-color:#000000;"
             x="197"
             y="256">9.12.</svg:text>
   <svg:path style="stroke-width: 0.5; stroke:#7c7c7c; stroke-dasharray:3.2;"
             d="M 210,246 L 210,12"/>
   <svg:text style="font-size:8pt;font-face: monospace, Courier;font-color:#000000;"
             x="237"
             y="256">11.12.</svg:text>
   <svg:path style="stroke-width: 0.5; stroke:#7c7c7c; stroke-dasharray:3.2;"
             d="M 250,246 L 250,12"/>
   <svg:text style="font-size:8pt;font-face: monospace, Courier;font-color:#000000;"
             x="277"
             y="256">13.12.</svg:text>
   <svg:path style="stroke-width: 0.5; stroke:#7c7c7c; stroke-dasharray:3.2;"
             d="M 290,246 L 290,12"/>
   <svg:text style="font-size:8pt;font-face: monospace, Courier;font-color:#000000;"
             x="317"
             y="256">15.12.</svg:text>
   <svg:path style="stroke-width: 0.5; stroke:#7c7c7c; stroke-dasharray:3.2;"
             d="M 330,246 L 330,12"/>
   <svg:text style="font-size:8pt;font-face: monospace, Courier;font-color:#000000;"
             x="357"
             y="256">17.12.</svg:text>
   <svg:path style="stroke-width: 0.5; stroke:#7c7c7c; stroke-dasharray:3.2;"
             d="M 370,246 L 370,12"/>
   <svg:text style="font-size:8pt;font-face: monospace, Courier;font-color:#000000;"
             x="397"
             y="256">19.12.</svg:text>
   <svg:path style="stroke-width: 0.5; stroke:#7c7c7c; stroke-dasharray:3.2;"
             d="M 410,246 L 410,12"/>
   <svg:text style="font-size:8pt;font-face: monospace, Courier;font-color:#000000;"
             x="437"
             y="256">21.12.</svg:text>
   <svg:path style="stroke-width: 0.5; stroke:#7c7c7c; stroke-dasharray:3.2;"
             d="M 450,246 L 450,12"/>
   <svg:text style="font-size:8pt;font-face: monospace, Courier;font-color:#000000;"
             x="477"
             y="256">23.12.</svg:text>
   <svg:path style="stroke-width: 0.5; stroke:#7c7c7c; stroke-dasharray:3.2;"
             d="M 490,246 L 490,12"/>
   <svg:text style="font-size:8pt;font-face: monospace, Courier;font-color:#000000;"
             x="517"
             y="256">25.12.</svg:text>
   <svg:path style="stroke-width: 0.5; stroke:#7c7c7c; stroke-dasharray:3.2;"
             d="M 530,246 L 530,12"/>
   <svg:text style="font-size:8pt;font-face: monospace, Courier;font-color:#000000;"
             x="557"
             y="256">27.12.</svg:text>
   <svg:path style="stroke-width: 0.5; stroke:#7c7c7c; stroke-dasharray:3.2;"
             d="M 570,246 L 570,12"/>
   <svg:text style="font-size:8pt;font-face: monospace, Courier;font-color:#000000;"
             x="597"
             y="256">29.12.</svg:text>
   <svg:path style="stroke-width: 0.5; stroke:#7c7c7c; stroke-dasharray:3.2;"
             d="M 610,246 L 610,12"/>
   <svg:text style="font-size:8pt;font-face: monospace, Courier;font-color:#000000;"
             x="637"
             y="256">31.12.</svg:text>
   <svg:path style="stroke-width: 0.5; stroke:#7c7c7c; stroke-dasharray:3.2;"
             d="M 650,246 L 650,12"/>
   <svg:text style="font-size:8pt;font-face: monospace, Courier;font-color:#000000;"
             x="5"
             y="246.0">0 mm</svg:text>
   <svg:path style="stroke-width: 0.5; stroke:#7c7c7c; stroke-dasharray:3.2;"
             d="M 45,246.0 L 685,246.0"/>
   <svg:text style="font-size:7.5pt;font-face: monospace, Courier;font-color:#000000;"
             x="5"
             y="206">4 mm</svg:text>
   <svg:path style="stroke-width: 0.5; stroke:#7c7c7c; stroke-dasharray:3.2;"
             d="M 45,206 L 685,206"/>
   <svg:text style="font-size:7.5pt;font-face: monospace, Courier;font-color:#000000;"
             x="5"
             y="166">8 mm</svg:text>
   <svg:path style="stroke-width: 0.5; stroke:#7c7c7c; stroke-dasharray:3.2;"
             d="M 45,166 L 685,166"/>
   <svg:text style="font-size:7.5pt;font-face: monospace, Courier;font-color:#000000;"
             x="5"
             y="126">12 mm</svg:text>
   <svg:path style="stroke-width: 0.5; stroke:#7c7c7c; stroke-dasharray:3.2;"
             d="M 45,126 L 685,126"/>
   <svg:text style="font-size:7.5pt;font-face: monospace, Courier;font-color:#000000;"
             x="5"
             y="86">16 mm</svg:text>
   <svg:path style="stroke-width: 0.5; stroke:#7c7c7c; stroke-dasharray:3.2;"
             d="M 45,86 L 685,86"/>
   <svg:text style="font-size:7.5pt;font-face: monospace, Courier;font-color:#000000;"
             x="5"
             y="46">20 mm</svg:text>
   <svg:path style="stroke-width: 0.5; stroke:#7c7c7c; stroke-dasharray:3.2;"
             d="M 45,46 L 685,46"/>
   <svg:rect x="70"
             y="12"
             width="20.0"
             height="236"
             style="fill:#ff7777;fill-opacity:0.4;"/>
   <svg:rect x="50"
             y="246"
             height="0"
             width="20.0"
             style="fill:#7777ff;fill-opacity:0.7;"/>
   <svg:rect x="90"
             y="246"
             height="0"
             width="20.0"
             style="fill:#7777ff;fill-opacity:0.7;"/>
   <svg:rect x="110"
             y="246"
             height="0"
             width="20.0"
             style="fill:#7777ff;fill-opacity:0.7;"/>
   <svg:rect x="130"
             y="231"
             height="14.999999999999998"
             width="20.0"
             style="fill:#7777ff;fill-opacity:0.7;"/>
   <svg:rect x="150"
             y="246"
             height="0"
             width="20.0"
             style="fill:#7777ff;fill-opacity:0.7;"/>
   <svg:rect x="170"
             y="246"
             height="0"
             width="20.0"
             style="fill:#7777ff;fill-opacity:0.7;"/>
   <svg:rect x="190"
             y="246"
             height="0"
             width="20.0"
             style="fill:#7777ff;fill-opacity:0.7;"/>
   <svg:rect x="210"
             y="246"
             height="0"
             width="20.0"
             style="fill:#7777ff;fill-opacity:0.7;"/>
   <svg:rect x="230"
             y="240"
             height="6.000000000000001"
             width="20.0"
             style="fill:#7777ff;fill-opacity:0.7;"/>
   <svg:rect x="250"
             y="246"
             height="0"
             width="20.0"
             style="fill:#7777ff;fill-opacity:0.7;"/>
   <svg:rect x="270"
             y="246"
             height="0"
             width="20.0"
             style="fill:#7777ff;fill-opacity:0.7;"/>
   <svg:rect x="290"
             y="246"
             height="0"
             width="20.0"
             style="fill:#7777ff;fill-opacity:0.7;"/>
   <svg:rect x="310"
             y="246"
             height="0"
             width="20.0"
             style="fill:#7777ff;fill-opacity:0.7;"/>
   <svg:rect x="330"
             y="246"
             height="0"
             width="20.0"
             style="fill:#7777ff;fill-opacity:0.7;"/>
   <svg:rect x="350"
             y="246"
             height="0"
             width="20.0"
             style="fill:#7777ff;fill-opacity:0.7;"/>
   <svg:rect x="370"
             y="246"
             height="0"
             width="20.0"
             style="fill:#7777ff;fill-opacity:0.7;"/>
   <svg:rect x="390"
             y="246"
             height="0"
             width="20.0"
             style="fill:#7777ff;fill-opacity:0.7;"/>
   <svg:rect x="410"
             y="246"
             height="0"
             width="20.0"
             style="fill:#7777ff;fill-opacity:0.7;"/>
   <svg:rect x="430"
             y="246"
             height="0"
             width="20.0"
             style="fill:#7777ff;fill-opacity:0.7;"/>
   <svg:rect x="450"
             y="246"
             height="0"
             width="20.0"
             style="fill:#7777ff;fill-opacity:0.7;"/>
   <svg:rect x="470"
             y="246"
             height="0"
             width="20.0"
             style="fill:#7777ff;fill-opacity:0.7;"/>
   <svg:rect x="490"
             y="246"
             height="0"
             width="20.0"
             style="fill:#7777ff;fill-opacity:0.7;"/>
   <svg:rect x="510"
             y="246"
             height="0"
             width="20.0"
             style="fill:#7777ff;fill-opacity:0.7;"/>
   <svg:rect x="530"
             y="246"
             height="0"
             width="20.0"
             style="fill:#7777ff;fill-opacity:0.7;"/>
   <svg:rect x="550"
             y="246"
             height="0"
             width="20.0"
             style="fill:#7777ff;fill-opacity:0.7;"/>
   <svg:rect x="570"
             y="246"
             height="0"
             width="20.0"
             style="fill:#7777ff;fill-opacity:0.7;"/>
   <svg:rect x="590"
             y="246"
             height="0"
             width="20.0"
             style="fill:#7777ff;fill-opacity:0.7;"/>
   <svg:rect x="610"
             y="246"
             height="0"
             width="20.0"
             style="fill:#7777ff;fill-opacity:0.7;"/>
   <svg:rect x="630"
             y="246"
             height="0"
             width="20.0"
             style="fill:#7777ff;fill-opacity:0.7;"/>
   <svg:rect x="650"
             y="246"
             height="0"
             width="20.0"
             style="fill:#7777ff;fill-opacity:0.7;"/>
</svg>
