<?xml version="1.0" encoding="UTF-8"?>
<svg xmlns="http://www.w3.org/2000/svg"
     xmlns:rdf="http://www.w3.org/1999/02/22-rdf-syntax-ns#"
     xmlns:svg="http://www.w3.org/2000/svg"
     id="barrowsvg0.1"
     version="1.1"
     width="700"
     height="256">
   <defs id="defines_barrowsvg0.1"/>
   <svg:path style="fill:#fafaff;"
             d="M 0.0,0.0 L 700.0,0.0 700.0,256.0 0.0,256.0 Z"
             id="bg"/>
   <svg:path style="fill:#eaeafc;"
             d="M 50,12 L 685,12 685,246 50,246 Z"
             id="bg2"/>
   <svg:path style="fill:#0d0d0d;stroke:#0d0d0d;"
             d="M 50,64.0 L 50,12"
             id="coordypos"/>
   <svg:path style="fill:#0d0d0d;stroke:#0d0d0d;"
             d="M 50,7 L 55,14 50,12 45,14 Z"
             id="arrowypos"/>
   <svg:path style="fill:#0d0d0d;stroke:#0d0d0d;"
             d="M 50,64.0 L 50,246"
             id="coordyneg"/>
   <svg:path style="fill:#0d0d0d;stroke:#0d0d0d;"
             d="M 50,241 L 55,248 50,246 45,248 Z"
             transform="rotate(180 50 246)"
             id="arrowyneg"/>
   <svg:path style="fill:#0d0d0d;stroke:#0d0d0d;"
             d="M 50,64.0 L 685,64.0"
             id="coordxpos"/>
   <svg:path style="fill:#0d0d0d;stroke:#0d0d0d;"
             d="M 685,59 L 690,66 685,64.0 680,66 Z"
             transform="rotate(90 685,64.0)"
             id="arrowxpos"/>
   <svg:text style="font-size:8pt;font-face: monospace, Courier;font-color:#000000;"
             x="77"
             y="256">3.04.</svg:text>
   <svg:path style="stroke-width: 0.5; stroke:#7c7c7c; stroke-dasharray:3.2;"
             d="M 90,246 L 90,12"/>
   <svg:text style="font-size:8pt;font-face: monospace, Courier;font-color:#000000;"
             x="117"
             y="256">5.04.</svg:text>
   <svg:path style="stroke-width: 0.5; stroke:#7c7c7c; stroke-dasharray:3.2;"
             d="M 130,246 L 130,12"/>
   <svg:text style="font-size:8pt;font-face: monospace, Courier;font-color:#000000;"
             x="157"
             y="256">7.04.</svg:text>
   <svg:path style="stroke-width: 0.5; stroke:#7c7c7c; stroke-dasharray:3.2;"
             d="M 170,246 L 170,12"/>
   <svg:text style="font-size:8pt;font-face: monospace, Courier;font-color:#000000;"
             x="197"
             y="256">9.04.</svg:text>
   <svg:path style="stroke-width: 0.5; stroke:#7c7c7c; stroke-dasharray:3.2;"
             d="M 210,246 L 210,12"/>
   <svg:text style="font-size:8pt;font-face: monospace, Courier;font-color:#000000;"
             x="237"
             y="256">11.04.</svg:text>
   <svg:path style="stroke-width: 0.5; stroke:#7c7c7c; stroke-dasharray:3.2;"
             d="M 250,246 L 250,12"/>
   <svg:text style="font-size:8pt;font-face: monospace, Courier;font-color:#000000;"
             x="277"
             y="256">13.04.</svg:text>
   <svg:path style="stroke-width: 0.5; stroke:#7c7c7c; stroke-dasharray:3.2;"
             d="M 290,246 L 290,12"/>
   <svg:text style="font-size:8pt;font-face: monospace, Courier;font-color:#000000;"
             x="317"
             y="256">15.04.</svg:text>
   <svg:path style="stroke-width: 0.5; stroke:#7c7c7c; stroke-dasharray:3.2;"
             d="M 330,246 L 330,12"/>
   <svg:text style="font-size:8pt;font-face: monospace, Courier;font-color:#000000;"
             x="357"
             y="256">17.04.</svg:text>
   <svg:path style="stroke-width: 0.5; stroke:#7c7c7c; stroke-dasharray:3.2;"
             d="M 370,246 L 370,12"/>
   <svg:text style="font-size:8pt;font-face: monospace, Courier;font-color:#000000;"
             x="397"
             y="256">19.04.</svg:text>
   <svg:path style="stroke-width: 0.5; stroke:#7c7c7c; stroke-dasharray:3.2;"
             d="M 410,246 L 410,12"/>
   <svg:text style="font-size:8pt;font-face: monospace, Courier;font-color:#000000;"
             x="437"
             y="256">21.04.</svg:text>
   <svg:path style="stroke-width: 0.5; stroke:#7c7c7c; stroke-dasharray:3.2;"
             d="M 450,246 L 450,12"/>
   <svg:text style="font-size:8pt;font-face: monospace, Courier;font-color:#000000;"
             x="477"
             y="256">23.04.</svg:text>
   <svg:path style="stroke-width: 0.5; stroke:#7c7c7c; stroke-dasharray:3.2;"
             d="M 490,246 L 490,12"/>
   <svg:text style="font-size:8pt;font-face: monospace, Courier;font-color:#000000;"
             x="517"
             y="256">25.04.</svg:text>
   <svg:path style="stroke-width: 0.5; stroke:#7c7c7c; stroke-dasharray:3.2;"
             d="M 530,246 L 530,12"/>
   <svg:text style="font-size:8pt;font-face: monospace, Courier;font-color:#000000;"
             x="557"
             y="256">27.04.</svg:text>
   <svg:path style="stroke-width: 0.5; stroke:#7c7c7c; stroke-dasharray:3.2;"
             d="M 570,246 L 570,12"/>
   <svg:text style="font-size:8pt;font-face: monospace, Courier;font-color:#000000;"
             x="597"
             y="256">29.04.</svg:text>
   <svg:path style="stroke-width: 0.5; stroke:#7c7c7c; stroke-dasharray:3.2;"
             d="M 610,246 L 610,12"/>
   <svg:text style="font-size:8pt;font-face: monospace, Courier;font-color:#000000;"
             x="637"
             y="256">31.04.</svg:text>
   <svg:path style="stroke-width: 0.5; stroke:#7c7c7c; stroke-dasharray:3.2;"
             d="M 650,246 L 650,12"/>
   <svg:text style="font-size:8pt;font-face: monospace, Courier;font-color:#000000;"
             x="5"
             y="64.0">  0°C</svg:text>
   <svg:path style="stroke-width: 0.5; stroke:#7c7c7c; stroke-dasharray:3.2;"
             d="M 45,64.0 L 685,64.0"/>
   <svg:text style="font-size:8pt;font-face: monospace, Courier;font-color:#000000;"
             x="5"
             y="104">-10°C</svg:text>
   <svg:path style="stroke-width: 0.5; stroke:#7c7c7c; stroke-dasharray:3.2;"
             d="M 45,104 L 685,104"/>
   <svg:text style="font-size:8pt;font-face: monospace, Courier;font-color:#000000;"
             x="5"
             y="144">-20°C</svg:text>
   <svg:path style="stroke-width: 0.5; stroke:#7c7c7c; stroke-dasharray:3.2;"
             d="M 45,144 L 685,144"/>
   <svg:text style="font-size:8pt;font-face: monospace, Courier;font-color:#000000;"
             x="5"
             y="184">-30°C</svg:text>
   <svg:path style="stroke-width: 0.5; stroke:#7c7c7c; stroke-dasharray:3.2;"
             d="M 45,184 L 685,184"/>
   <svg:text style="font-size:8pt;font-face: monospace, Courier;font-color:#000000;"
             x="5"
             y="224">-40°C</svg:text>
   <svg:path style="stroke-width: 0.5; stroke:#7c7c7c; stroke-dasharray:3.2;"
             d="M 45,224 L 685,224"/>
   <svg:text style="font-size:8pt;font-face: monospace, Courier;font-color:#000000;"
             x="5"
             y="24">+10°C</svg:text>
   <svg:path style="stroke-width: 0.5; stroke:#7c7c7c; stroke-dasharray:3.2;"
             d="M 45,24 L 685,24"/>
   <svg:path style="stroke:#0afc0a;fill:none;"
             d="M 50,161.45  L 50,145.86666666666667 L 60,156.60000000000002 L 70,150.03333333333336 L 80,184.56666666666666 L 90,154.43333333333334 L 100,185 L 110,150.5333333333333 L 120,165.60000000000002 L 130,138.03333333333336 L 140,154.83333333333337 L 150,156.2 L 160,181.73333333333335 L 170,155.43333333333334 L 180,187 L 190,145.1 L 200,158.06666666666666 L 210,146.73333333333335 L 220,175.06666666666666 L 230,148.43333333333334 L 240,177.39999999999998 L 250,154.83333333333331 L 260,164.33333333333331 L 270,145.43333333333334 L 280,167.59999999999997 L 290,140.8 L 300,163.83333333333331 L 310,139.33333333333331 L 320,164.83333333333331 L 330,138.76666666666665 L 340,170.8 L 350,106.53333333333333 L 360,135.83333333333331 L 370,107.9 L 380,115.80000000000001 L 390,91.16666666666666 L 400,98.4 L 410,88.73333333333333 L 420,122.26666666666665 L 430,114 L 440,123.96666666666667 L 450,109.66666666666666 L 460,158.26666666666665 L 470,133.76666666666665 L 480,154.46666666666664 L 490,129.5333333333333 L 500,153.76666666666665 L 510,127.56666666666666 L 520,148.53333333333336 L 530,119.23333333333332 L 540,115.06666666666666 L 550,99.9 L 560,131.26666666666665 L 570,112.93333333333334 L 580,106.76666666666665 L 590,104.1 L 600,141.83333333333331 L 610,119.5 L 620,143.13333333333333 L 630,105.46666666666667 L 640,122.6"
             id="curveTempCurrent"/>
</svg>
