<?xml version="1.0" encoding="UTF-8"?>
<svg xmlns="http://www.w3.org/2000/svg"
     xmlns:rdf="http://www.w3.org/1999/02/22-rdf-syntax-ns#"
     xmlns:svg="http://www.w3.org/2000/svg"
     id="barrowsvg0.1"
     version="1.1"
     width="700"
     height="256">
   <defs id="defines_barrowsvg0.1"/>
   <svg:path style="fill:#fafaff;"
             d="M 0.0,0.0 L 700.0,0.0 700.0,256.0 0.0,256.0 Z"
             id="bg"/>
   <svg:path style="fill:#eaeafc;"
             d="M 50,12 L 685,12 685,246 50,246 Z"
             id="bg2"/>
   <svg:path style="fill:#0d0d0d;stroke:#0d0d0d;"
             d="M 50,246.0 L 50,12"
             id="coordypos"/>
   <svg:path style="fill:#0d0d0d;stroke:#0d0d0d;"
             d="M 50,7 L 55,14 50,12 45,14 Z"
             id="arrowypos"/>
   <svg:path style="fill:#0d0d0d;stroke:#0d0d0d;"
             d="M 50,246.0 L 50,246"
             id="coordyneg"/>
   <svg:path style="fill:#0d0d0d;stroke:#0d0d0d;"
             d="M 50,241 L 55,248 50,246 45,248 Z"
             transform="rotate(180 50 246)"
             id="arrowyneg"/>
   <svg:path style="fill:#0d0d0d;stroke:#0d0d0d;"
             d="M 50,246.0 L 685,246.0"
             id="coordxpos"/>
   <svg:path style="fill:#0d0d0d;stroke:#0d0d0d;"
             d="M 685,241 L 690,248 685,246.0 680,248 Z"
             transform="rotate(90 685,246.0)"
             id="arrowxpos"/>
   <svg:text style="font-size:8pt;font-face: monospace, Courier;font-color:#000000;"
             x="77"
             y="256">3.01.</svg:text>
   <svg:path style="stroke-width: 0.5; stroke:#7c7c7c; stroke-dasharray:3.2;"
             d="M 90,246 L 90,12"/>
   <svg:text style="font-size:8pt;font-face: monospace, Courier;font-color:#000000;"
             x="117"
             y="256">5.01.</svg:text>
   <svg:path style="stroke-width: 0.5; stroke:#7c7c7c; stroke-dasharray:3.2;"
             d="M 130,246 L 130,12"/>
   <svg:text style="font-size:8pt;font-face: monospace, Courier;font-color:#000000;"
             x="157"
             y="256">7.01.</svg:text>
   <svg:path style="stroke-width: 0.5; stroke:#7c7c7c; stroke-dasharray:3.2;"
             d="M 170,246 L 170,12"/>
   <svg:text style="font-size:8pt;font-face: monospace, Courier;font-color:#000000;"
             x="197"
             y="256">9.01.</svg:text>
   <svg:path style="stroke-width: 0.5; stroke:#7c7c7c; stroke-dasharray:3.2;"
             d="M 210,246 L 210,12"/>
   <svg:text style="font-size:8pt;font-face: monospace, Courier;font-color:#000000;"
             x="237"
             y="256">11.01.</svg:text>
   <svg:path style="stroke-width: 0.5; stroke:#7c7c7c; stroke-dasharray:3.2;"
             d="M 250,246 L 250,12"/>
   <svg:text style="font-size:8pt;font-face: monospace, Courier;font-color:#000000;"
             x="277"
             y="256">13.01.</svg:text>
   <svg:path style="stroke-width: 0.5; stroke:#7c7c7c; stroke-dasharray:3.2;"
             d="M 290,246 L 290,12"/>
   <svg:text style="font-size:8pt;font-face: monospace, Courier;font-color:#000000;"
             x="317"
             y="256">15.01.</svg:text>
   <svg:path style="stroke-width: 0.5; stroke:#7c7c7c; stroke-dasharray:3.2;"
             d="M 330,246 L 330,12"/>
   <svg:text style="font-size:8pt;font-face: monospace, Courier;font-color:#000000;"
             x="357"
             y="256">17.01.</svg:text>
   <svg:path style="stroke-width: 0.5; stroke:#7c7c7c; stroke-dasharray:3.2;"
             d="M 370,246 L 370,12"/>
   <svg:text style="font-size:8pt;font-face: monospace, Courier;font-color:#000000;"
             x="397"
             y="256">19.01.</svg:text>
   <svg:path style="stroke-width: 0.5; stroke:#7c7c7c; stroke-dasharray:3.2;"
             d="M 410,246 L 410,12"/>
   <svg:text style="font-size:8pt;font-face: monospace, Courier;font-color:#000000;"
             x="437"
             y="256">21.01.</svg:text>
   <svg:path style="stroke-width: 0.5; stroke:#7c7c7c; stroke-dasharray:3.2;"
             d="M 450,246 L 450,12"/>
   <svg:text style="font-size:8pt;font-face: monospace, Courier;font-color:#000000;"
             x="477"
             y="256">23.01.</svg:text>
   <svg:path style="stroke-width: 0.5; stroke:#7c7c7c; stroke-dasharray:3.2;"
             d="M 490,246 L 490,12"/>
   <svg:text style="font-size:8pt;font-face: monospace, Courier;font-color:#000000;"
             x="517"
             y="256">25.01.</svg:text>
   <svg:path style="stroke-width: 0.5; stroke:#7c7c7c; stroke-dasharray:3.2;"
             d="M 530,246 L 530,12"/>
   <svg:text style="font-size:8pt;font-face: monospace, Courier;font-color:#000000;"
             x="557"
             y="256">27.01.</svg:text>
   <svg:path style="stroke-width: 0.5; stroke:#7c7c7c; stroke-dasharray:3.2;"
             d="M 570,246 L 570,12"/>
   <svg:text style="font-size:8pt;font-face: monospace, Courier;font-color:#000000;"
             x="597"
             y="256">29.01.</svg:text>
   <svg:path style="stroke-width: 0.5; stroke:#7c7c7c; stroke-dasharray:3.2;"
             d="M 610,246 L 610,12"/>
   <svg:text style="font-size:8pt;font-face: monospace, Courier;font-color:#000000;"
             x="637"
             y="256">31.01.</svg:text>
   <svg:path style="stroke-width: 0.5; stroke:#7c7c7c; stroke-dasharray:3.2;"
             d="M 650,246 L 650,12"/>
   <svg:text style="font-size:8pt;font-face: monospace, Courier;font-color:#000000;"
             x="5"
             y="246.0">0 %</svg:text>
   <svg:path style="stroke-width: 0.5; stroke:#7c7c7c; stroke-dasharray:3.2;"
             d="M 45,246.0 L 685,246.0"/>
   <svg:text style="font-size:7.5pt;font-face: monospace, Courier;font-color:#000000;"
             x="5"
             y="202">20 %</svg:text>
   <svg:path style="stroke-width: 0.5; stroke:#7c7c7c; stroke-dasharray:3.2;"
             d="M 45,202 L 685,202"/>
   <svg:text style="font-size:7.5pt;font-face: monospace, Courier;font-color:#000000;"
             x="5"
             y="158">40 %</svg:text>
   <svg:path style="stroke-width: 0.5; stroke:#7c7c7c; stroke-dasharray:3.2;"
             d="M 45,158 L 685,158"/>
   <svg:text style="font-size:7.5pt;font-face: monospace, Courier;font-color:#000000;"
             x="5"
             y="114">60 %</svg:text>
   <svg:path style="stroke-width: 0.5; stroke:#7c7c7c; stroke-dasharray:3.2;"
             d="M 45,114 L 685,114"/>
   <svg:text style="font-size:7.5pt;font-face: monospace, Courier;font-color:#000000;"
             x="5"
             y="70">80 %</svg:text>
   <svg:path style="stroke-width: 0.5; stroke:#7c7c7c; stroke-dasharray:3.2;"
             d="M 45,70 L 685,70"/>
   <svg:text style="font-size:7.5pt;font-face: monospace, Courier;font-color:#000000;"
             x="5"
             y="26">100 %</svg:text>
   <svg:path style="stroke-width: 0.5; stroke:#7c7c7c; stroke-dasharray:3.2;"
             d="M 45,26 L 685,26"/>
   <svg:rect x="1090"
             y="12"
             width="20.0"
             height="236"
             style="fill:#ff7777;fill-opacity:0.4;"/>
   <svg:path style="stroke:#fc2c2a;fill:none;"
             d="M 50,191  L 50,191 L 70,82.74166666666667 L 90,70.27499999999998 L 110,59.458333333333314 L 130,58.17499999999998 L 150,55.241666666666674 L 170,58.99999999999997 L 190,68.62499999999997 L 210,65.23333333333332 L 230,45.616666666666674 L 250,52.30833333333331 L 270,55.79166666666666 L 290,67.24999999999997 L 310,72.75 L 330,77.05833333333331 L 350,62.849999999999994 L 370,69.17499999999998 L 390,71.83333333333331 L 410,76.04999999999998 L 430,81.91666666666666 L 450,89.34166666666667 L 470,91.26666666666665 L 490,92.82499999999999 L 510,98.96666666666667 L 530,97.77499999999998 L 550,90.2583333333333 L 570,75.68333333333331 L 610,74.0333333333333 L 630,64.95833333333331 L 650,55.333333333333314"
             id="curveTempCurrent"/>
</svg>
