<?xml version="1.0" encoding="UTF-8"?>
<svg xmlns="http://www.w3.org/2000/svg"
     xmlns:rdf="http://www.w3.org/1999/02/22-rdf-syntax-ns#"
     xmlns:svg="http://www.w3.org/2000/svg"
     id="barrowsvg0.1"
     version="1.1"
     width="700"
     height="256">
   <defs id="defines_barrowsvg0.1"/>
   <svg:path style="fill:#fafaff;"
             d="M 0.0,0.0 L 700.0,0.0 700.0,256.0 0.0,256.0 Z"
             id="bg"/>
   <svg:path style="fill:#eaeafc;"
             d="M 50,12 L 685,12 685,246 50,246 Z"
             id="bg2"/>
   <svg:path style="fill:#0d0d0d;stroke:#0d0d0d;"
             d="M 50,64.0 L 50,12"
             id="coordypos"/>
   <svg:path style="fill:#0d0d0d;stroke:#0d0d0d;"
             d="M 50,7 L 55,14 50,12 45,14 Z"
             id="arrowypos"/>
   <svg:path style="fill:#0d0d0d;stroke:#0d0d0d;"
             d="M 50,64.0 L 50,246"
             id="coordyneg"/>
   <svg:path style="fill:#0d0d0d;stroke:#0d0d0d;"
             d="M 50,241 L 55,248 50,246 45,248 Z"
             transform="rotate(180 50 246)"
             id="arrowyneg"/>
   <svg:path style="fill:#0d0d0d;stroke:#0d0d0d;"
             d="M 50,64.0 L 685,64.0"
             id="coordxpos"/>
   <svg:path style="fill:#0d0d0d;stroke:#0d0d0d;"
             d="M 685,59 L 690,66 685,64.0 680,66 Z"
             transform="rotate(90 685,64.0)"
             id="arrowxpos"/>
   <svg:text style="font-size:8pt;font-face: monospace, Courier;font-color:#000000;"
             x="77"
             y="256">3.01.</svg:text>
   <svg:path style="stroke-width: 0.5; stroke:#7c7c7c; stroke-dasharray:3.2;"
             d="M 90,246 L 90,12"/>
   <svg:text style="font-size:8pt;font-face: monospace, Courier;font-color:#000000;"
             x="117"
             y="256">5.01.</svg:text>
   <svg:path style="stroke-width: 0.5; stroke:#7c7c7c; stroke-dasharray:3.2;"
             d="M 130,246 L 130,12"/>
   <svg:text style="font-size:8pt;font-face: monospace, Courier;font-color:#000000;"
             x="157"
             y="256">7.01.</svg:text>
   <svg:path style="stroke-width: 0.5; stroke:#7c7c7c; stroke-dasharray:3.2;"
             d="M 170,246 L 170,12"/>
   <svg:text style="font-size:8pt;font-face: monospace, Courier;font-color:#000000;"
             x="197"
             y="256">9.01.</svg:text>
   <svg:path style="stroke-width: 0.5; stroke:#7c7c7c; stroke-dasharray:3.2;"
             d="M 210,246 L 210,12"/>
   <svg:text style="font-size:8pt;font-face: monospace, Courier;font-color:#000000;"
             x="237"
             y="256">11.01.</svg:text>
   <svg:path style="stroke-width: 0.5; stroke:#7c7c7c; stroke-dasharray:3.2;"
             d="M 250,246 L 250,12"/>
   <svg:text style="font-size:8pt;font-face: monospace, Courier;font-color:#000000;"
             x="277"
             y="256">13.01.</svg:text>
   <svg:path style="stroke-width: 0.5; stroke:#7c7c7c; stroke-dasharray:3.2;"
             d="M 290,246 L 290,12"/>
   <svg:text style="font-size:8pt;font-face: monospace, Courier;font-color:#000000;"
             x="317"
             y="256">15.01.</svg:text>
   <svg:path style="stroke-width: 0.5; stroke:#7c7c7c; stroke-dasharray:3.2;"
             d="M 330,246 L 330,12"/>
   <svg:text style="font-size:8pt;font-face: monospace, Courier;font-color:#000000;"
             x="357"
             y="256">17.01.</svg:text>
   <svg:path style="stroke-width: 0.5; stroke:#7c7c7c; stroke-dasharray:3.2;"
             d="M 370,246 L 370,12"/>
   <svg:text style="font-size:8pt;font-face: monospace, Courier;font-color:#000000;"
             x="397"
             y="256">19.01.</svg:text>
   <svg:path style="stroke-width: 0.5; stroke:#7c7c7c; stroke-dasharray:3.2;"
             d="M 410,246 L 410,12"/>
   <svg:text style="font-size:8pt;font-face: monospace, Courier;font-color:#000000;"
             x="437"
             y="256">21.01.</svg:text>
   <svg:path style="stroke-width: 0.5; stroke:#7c7c7c; stroke-dasharray:3.2;"
             d="M 450,246 L 450,12"/>
   <svg:text style="font-size:8pt;font-face: monospace, Courier;font-color:#000000;"
             x="477"
             y="256">23.01.</svg:text>
   <svg:path style="stroke-width: 0.5; stroke:#7c7c7c; stroke-dasharray:3.2;"
             d="M 490,246 L 490,12"/>
   <svg:text style="font-size:8pt;font-face: monospace, Courier;font-color:#000000;"
             x="517"
             y="256">25.01.</svg:text>
   <svg:path style="stroke-width: 0.5; stroke:#7c7c7c; stroke-dasharray:3.2;"
             d="M 530,246 L 530,12"/>
   <svg:text style="font-size:8pt;font-face: monospace, Courier;font-color:#000000;"
             x="557"
             y="256">27.01.</svg:text>
   <svg:path style="stroke-width: 0.5; stroke:#7c7c7c; stroke-dasharray:3.2;"
             d="M 570,246 L 570,12"/>
   <svg:text style="font-size:8pt;font-face: monospace, Courier;font-color:#000000;"
             x="597"
             y="256">29.01.</svg:text>
   <svg:path style="stroke-width: 0.5; stroke:#7c7c7c; stroke-dasharray:3.2;"
             d="M 610,246 L 610,12"/>
   <svg:text style="font-size:8pt;font-face: monospace, Courier;font-color:#000000;"
             x="637"
             y="256">31.01.</svg:text>
   <svg:path style="stroke-width: 0.5; stroke:#7c7c7c; stroke-dasharray:3.2;"
             d="M 650,246 L 650,12"/>
   <svg:text style="font-size:8pt;font-face: monospace, Courier;font-color:#000000;"
             x="5"
             y="64.0">  0°C</svg:text>
   <svg:path style="stroke-width: 0.5; stroke:#7c7c7c; stroke-dasharray:3.2;"
             d="M 45,64.0 L 685,64.0"/>
   <svg:text style="font-size:8pt;font-face: monospace, Courier;font-color:#000000;"
             x="5"
             y="104">-10°C</svg:text>
   <svg:path style="stroke-width: 0.5; stroke:#7c7c7c; stroke-dasharray:3.2;"
             d="M 45,104 L 685,104"/>
   <svg:text style="font-size:8pt;font-face: monospace, Courier;font-color:#000000;"
             x="5"
             y="144">-20°C</svg:text>
   <svg:path style="stroke-width: 0.5; stroke:#7c7c7c; stroke-dasharray:3.2;"
             d="M 45,144 L 685,144"/>
   <svg:text style="font-size:8pt;font-face: monospace, Courier;font-color:#000000;"
             x="5"
             y="184">-30°C</svg:text>
   <svg:path style="stroke-width: 0.5; stroke:#7c7c7c; stroke-dasharray:3.2;"
             d="M 45,184 L 685,184"/>
   <svg:text style="font-size:8pt;font-face: monospace, Courier;font-color:#000000;"
             x="5"
             y="224">-40°C</svg:text>
   <svg:path style="stroke-width: 0.5; stroke:#7c7c7c; stroke-dasharray:3.2;"
             d="M 45,224 L 685,224"/>
   <svg:text style="font-size:8pt;font-face: monospace, Courier;font-color:#000000;"
             x="5"
             y="24">+10°C</svg:text>
   <svg:path style="stroke-width: 0.5; stroke:#7c7c7c; stroke-dasharray:3.2;"
             d="M 45,24 L 685,24"/>
   <svg:rect x="550"
             y="12"
             width="10.0"
             height="236"
             style="fill:#ff7777;fill-opacity:0.4;"/>
   <svg:rect x="560"
             y="12"
             width="10.0"
             height="236"
             style="fill:#ff7777;fill-opacity:0.4;"/>
   <svg:rect x="570"
             y="12"
             width="10.0"
             height="236"
             style="fill:#ff7777;fill-opacity:0.4;"/>
   <svg:path style="stroke:#0a0afc;fill:none;"
             d="M 50,101.69999999999999  L 50,139.39999999999998 L 60,179.66666666666663 L 70,183.56666666666666 L 80,162.43333333333334 L 90,141.43333333333334 L 100,127.5 L 110,129.39999999999998 L 120,136 L 130,122.4 L 140,112.06666666666666 L 150,124.50000000000003 L 160,125.20000000000002 L 170,126.83333333333334 L 180,121.56666666666666 L 190,160.3 L 200,150.59999999999997 L 210,135.39999999999998 L 220,86.9 L 230,68.96666666666667 L 240,91 L 250,130.10000000000002 L 260,124.23333333333332 L 270,129.6 L 280,146.63333333333333 L 290,149 L 300,154.53333333333336 L 310,158.06666666666666 L 320,160.8 L 330,162.93333333333334 L 340,137.2 L 350,159.39999999999998 L 360,176.93333333333334 L 370,138.73333333333335 L 380,151.36666666666667 L 390,173.13333333333333 L 400,169.63333333333333 L 410,167 L 420,175.8 L 430,191.9666666666667 L 440,200.16666666666669 L 450,204.46666666666667 L 460,205.00000000000003 L 470,205.53333333333333 L 480,204.60000000000002 L 490,217.03333333333333 L 500,230.83333333333334 L 510,223.73333333333332 L 520,225.46666666666667 L 530,219.70000000000002 L 540,204 L 550,195.8 L 590,175.33333333333331 L 600,171.73333333333335 L 610,153.73333333333335 L 620,144.4 L 630,139.89999999999998 L 640,118.9 L 650,118.43333333333334 L 660,117.43333333333334"
             id="curveTempCurrent"/>
</svg>
